<?xml version="1.0" encoding="UTF-8"?>
<svg id="LOGO_proxima_" data-name="LOGO [proxima]" xmlns="http://www.w3.org/2000/svg" width="1920" height="1080" xmlns:xlink="http://www.w3.org/1999/xlink" viewBox="0 0 1920 1080">
  <defs>
    <linearGradient id="Gradient_bez_nazwy_37" data-name="Gradient bez nazwy 37" x1="540.606" y1="562.293" x2="961.349" y2="562.293" gradientUnits="userSpaceOnUse">
      <stop offset="0" stop-color="#fe5112"/>
      <stop offset=".156" stop-color="#fd6113"/>
      <stop offset=".465" stop-color="#fd8d18"/>
      <stop offset=".893" stop-color="#fcd41f"/>
      <stop offset="1" stop-color="#fce721"/>
      <stop offset="1" stop-color="#ffb900"/>
    </linearGradient>
    <linearGradient id="Gradient_bez_nazwy_37-2" data-name="Gradient bez nazwy 37" x1="540.606" y1="477.684" x2="632.878" y2="477.684" xlink:href="#Gradient_bez_nazwy_37"/>
    <linearGradient id="Gradient_bez_nazwy_37-3" data-name="Gradient bez nazwy 37" x1="540.606" y1="477.684" x2="632.878" y2="477.684" xlink:href="#Gradient_bez_nazwy_37"/>
    <linearGradient id="Gradient_bez_nazwy_37-4" data-name="Gradient bez nazwy 37" x1="540.606" y1="477.684" x2="632.878" y2="477.684" xlink:href="#Gradient_bez_nazwy_37"/>
  </defs>
  <g>
    <path d="M642.302,552.168l-35.548,60.147h-13.5l-9.15-60.147-13.199,60.147h-30.299l22.049-100.045h40.798l6.899,47.998,28.199-47.998h42.898l-22.049,100.045h-30.299l13.199-60.147Z" fill="#fff"/>
    <path d="M742.803,600.616h-35.998l-6.15,11.699h-35.849l58.948-100.045h38.098l14.85,100.045h-32.849l-1.05-11.699ZM720.754,574.217h19.799l-2.85-32.248-16.949,32.248Z" fill="#fff"/>
    <path d="M809.253,538.669h-26.849l5.85-26.399h83.847l-5.85,26.399h-26.699l-16.199,73.646h-30.299l16.199-73.646Z" fill="#fff"/>
    <path d="M898.501,538.669h-26.849l5.85-26.399h83.847l-5.85,26.399h-26.699l-16.199,73.646h-30.299l16.199-73.646Z" fill="#fff"/>
    <path d="M1055.396,612.315l20.849-94.346-59.848,94.346h-1.499l-18.149-94.346-20.85,94.346h-4.8l22.049-100.045h7.351l17.099,89.546,56.698-89.546h7.949l-22.049,100.045h-4.8Z" fill="#fff"/>
    <path d="M1128.896,538.069c19.648,0,30.148,14.099,30.148,31.048,0,2.851-.6,6.6-1.05,8.4h-63.447c-.15.899-.301,3.3-.301,4.8,0,15.599,9.6,27.748,28.499,27.748,7.65,0,16.199-2.85,22.949-8.549l2.25,3.3c-6.3,5.1-15.6,9.299-25.199,9.299-21.449,0-33.599-13.349-33.599-31.798,0-24.3,17.85-44.249,39.749-44.249ZM1154.244,573.467c.15-.899.3-2.85.3-3.899,0-16.199-9.6-27.449-26.398-27.449-15.899,0-30.299,14.399-33.149,31.349h59.248Z" fill="#fff"/>
    <path d="M1248.744,512.27h4.5l-22.199,100.045h-4.5l2.55-11.549c-5.85,7.799-14.999,13.349-25.799,13.349-16.649,0-28.499-11.1-28.499-29.698,0-25.049,15.6-46.348,37.949-46.348,12.599,0,22.049,6.299,26.998,14.849l9-40.648ZM1203.596,610.065c11.25,0,21.6-7.35,26.999-15.599l8.25-37.648c-3.75-7.95-13.199-14.7-26.099-14.7-19.949,0-32.85,20.85-32.85,41.698,0,16.2,9.3,26.249,23.699,26.249Z" fill="#fff"/>
    <path d="M1256.846,612.315l16.05-72.447h4.499l-16.049,72.447h-4.5ZM1279.194,518.72c2.25,0,4.05,1.8,4.05,3.9,0,2.85-2.699,4.8-4.949,4.8s-4.05-1.8-4.05-3.9c0-2.85,2.7-4.8,4.949-4.8Z" fill="#fff"/>
    <path d="M1357.793,539.869h4.499l-16.049,72.447h-4.5l2.55-11.549c-5.85,7.799-14.999,13.349-25.799,13.349-16.649,0-28.499-11.1-28.499-29.698,0-25.049,15.6-46.348,37.948-46.348,12.6,0,22.05,6.299,26.999,14.849l2.851-13.049ZM1318.794,610.065c11.25,0,21.6-7.35,26.999-15.599l8.25-37.648c-3.75-7.95-13.199-14.7-26.1-14.7-19.948,0-32.849,20.85-32.849,41.698,0,16.2,9.3,26.249,23.699,26.249Z" fill="#fff"/>
  </g>
  <g>
    <g>
      <path d="M642.302,552.168l-35.548,60.147h-13.5l-9.15-60.147-13.199,60.147h-30.299l22.049-100.045h40.798l6.899,47.998,28.199-47.998h42.898l-22.049,100.045h-30.299l13.199-60.147Z" fill="#fff"/>
      <path d="M742.803,600.616h-35.998l-6.15,11.699h-35.849l58.948-100.045h38.098l14.85,100.045h-32.849l-1.05-11.699ZM720.754,574.217h19.799l-2.85-32.248-16.949,32.248Z" fill="#fff"/>
      <path d="M809.253,538.669h-26.849l5.85-26.399h83.847l-5.85,26.399h-26.699l-16.199,73.646h-30.299l16.199-73.646Z" fill="#fff"/>
      <path d="M898.501,538.669h-26.849l5.85-26.399h83.847l-5.85,26.399h-26.699l-16.199,73.646h-30.299l16.199-73.646Z" fill="#fff"/>
    </g>
    <g>
      <path d="M642.302,552.168l-35.548,60.147h-13.5l-9.15-60.147-13.199,60.147h-30.299l22.049-100.045h40.798l6.899,47.998,28.199-47.998h42.898l-22.049,100.045h-30.299l13.199-60.147Z" fill="url(#Gradient_bez_nazwy_37)"/>
      <path d="M742.803,600.616h-35.998l-6.15,11.699h-35.849l58.948-100.045h38.098l14.85,100.045h-32.849l-1.05-11.699ZM720.754,574.217h19.799l-2.85-32.248-16.949,32.248Z" fill="url(#Gradient_bez_nazwy_37)"/>
      <path d="M809.253,538.669h-26.849l5.85-26.399h83.847l-5.85,26.399h-26.699l-16.199,73.646h-30.299l16.199-73.646Z" fill="url(#Gradient_bez_nazwy_37)"/>
      <path d="M898.501,538.669h-26.849l5.85-26.399h83.847l-5.85,26.399h-26.699l-16.199,73.646h-30.299l16.199-73.646Z" fill="url(#Gradient_bez_nazwy_37)"/>
    </g>
  </g>
  <g>
    <g>
      <rect x="612.878" y="467.684" width="20" height="20" fill="#34c759"/>
      <rect x="576.742" y="467.684" width="20" height="20" fill="#fbb03b"/>
      <rect x="540.606" y="467.684" width="20" height="20" fill="#ff3b30"/>
    </g>
    <g>
      <rect x="612.878" y="467.684" width="20" height="20" fill="url(#Gradient_bez_nazwy_37-2)"/>
      <rect x="576.742" y="467.684" width="20" height="20" fill="url(#Gradient_bez_nazwy_37-3)"/>
      <rect x="540.606" y="467.684" width="20" height="20" fill="url(#Gradient_bez_nazwy_37-4)"/>
    </g>
  </g>
  <rect x="649.014" y="467.684" width="713.28" height="20" fill="#fff"/>
</svg>